<svg xmlns="http://www.w3.org/2000/svg" width="1800" height="2350" viewBox="0 0 1800 2350">
<defs><linearGradient id="hero" x1="0" y1="0" x2="1" y2="1"><stop offset="0" stop-color="#e6fbff"/><stop offset="1" stop-color="#f8f5ff"/></linearGradient><linearGradient id="snap" x1="0" y1="0" x2="1" y2="0"><stop offset="0" stop-color="#22a9bd"/><stop offset="1" stop-color="#7a5af8"/></linearGradient></defs>
<rect width="1800" height="2350" fill="#f7f9fb"/>
<rect x="70" y="60" width="1660" height="260" rx="34" fill="url(#hero)" stroke="#d7f4f8" stroke-width="2"/>
<text x="110" y="135" font-family="Inter, Arial" font-size="58" font-weight="800" fill="#15202b">Reqon Market Launch Visual Roadmap</text>
<text x="110" y="190" font-family="Inter, Arial" font-size="30" fill="#667085">High-level customer-value sequence for going live against Simplify without chasing feature parity.</text>
<rect x="110" y="230" width="500" height="54" rx="27" fill="#15202b"/>
<text x="360" y="266" font-family="Inter, Arial" font-size="24" fill="white" text-anchor="middle" font-weight="700">Launch thesis: smarter search, not faster spam</text>
<text x="690" y="265" font-family="Inter, Arial" font-size="25" fill="#15202b" font-weight="700">Simplify helps apply faster. Reqon helps users run the search.</text>
<text x="90" y="390" font-family="Inter, Arial" font-size="36" font-weight="800" fill="#15202b">Tier model</text>
<rect x="96" y="428" width="390" height="135" rx="22" fill="#101828" opacity="0.06"/><rect x="90" y="420" width="390" height="135" rx="22" fill="white" stroke="#e6eef4" stroke-width="2"/>
<circle cx="128" cy="455" r="16" fill="#22a9bd"/>
<text x="158" y="466" font-family="Inter, Arial" font-size="30" font-weight="800" fill="#15202b">Free</text>
<text x="118" y="510" font-size="22" fill="#667085" font-weight="400" text-anchor="start" font-family="Inter, Arial, sans-serif"><tspan x="118" dy="0">Local app + scout + core tracking</tspan></text>
<rect x="516" y="428" width="390" height="135" rx="22" fill="#101828" opacity="0.06"/><rect x="510" y="420" width="390" height="135" rx="22" fill="white" stroke="#e6eef4" stroke-width="2"/>
<circle cx="548" cy="455" r="16" fill="#2e90fa"/>
<text x="578" y="466" font-family="Inter, Arial" font-size="30" font-weight="800" fill="#15202b">Local Pro</text>
<text x="538" y="510" font-size="22" fill="#667085" font-weight="400" text-anchor="start" font-family="Inter, Arial, sans-serif"><tspan x="538" dy="0">Everything unlocked, self-hosted</tspan></text>
<rect x="936" y="428" width="390" height="135" rx="22" fill="#101828" opacity="0.06"/><rect x="930" y="420" width="390" height="135" rx="22" fill="white" stroke="#e6eef4" stroke-width="2"/>
<circle cx="968" cy="455" r="16" fill="#7a5af8"/>
<text x="998" y="466" font-family="Inter, Arial" font-size="30" font-weight="800" fill="#15202b">Cloud</text>
<text x="958" y="510" font-size="22" fill="#667085" font-weight="400" text-anchor="start" font-family="Inter, Arial, sans-serif"><tspan x="958" dy="0">Hosted sync across</tspan><tspan x="958" dy="26">board/app/extension</tspan></text>
<rect x="1356" y="428" width="390" height="135" rx="22" fill="#101828" opacity="0.06"/><rect x="1350" y="420" width="390" height="135" rx="22" fill="white" stroke="#e6eef4" stroke-width="2"/>
<circle cx="1388" cy="455" r="16" fill="#12b76a"/>
<text x="1418" y="466" font-family="Inter, Arial" font-size="30" font-weight="800" fill="#15202b">AI+</text>
<text x="1378" y="510" font-size="22" fill="#667085" font-weight="400" text-anchor="start" font-family="Inter, Arial, sans-serif"><tspan x="1378" dy="0">Cloud plus fit, autofill, drafts,</tspan><tspan x="1378" dy="26">prep</tspan></text>
<text x="90" y="640" font-family="Inter, Arial" font-size="36" font-weight="800" fill="#15202b">Pre-launch snap line timeline</text>
<text x="90" y="680" font-family="Inter, Arial" font-size="24" fill="#667085">Everything left of the snap line must be credible before go-to-market.</text>
<rect x="96.0" y="738" width="251.66666666666666" height="315" rx="24" fill="#101828" opacity="0.06"/><rect x="90.0" y="730" width="251.66666666666666" height="315" rx="24" fill="white" stroke="#e6eef4" stroke-width="2"/>
<rect x="90.0" y="730" width="251.66666666666666" height="62" rx="24" fill="#22a9bd"/>
<text x="116.0" y="772" font-family="Inter, Arial" font-size="26" font-weight="800" fill="white">Phase 0</text>
<text x="116.0" y="833" font-size="25" fill="#15202b" font-weight="800" text-anchor="start" font-family="Inter, Arial, sans-serif"><tspan x="116.0" dy="0">Stabilize &amp;</tspan><tspan x="116.0" dy="29">Package</tspan></text>
<circle cx="122.0" cy="898" r="6" fill="#22a9bd"/>
<text x="140.0" y="905" font-size="20" fill="#15202b" font-weight="400" text-anchor="start" font-family="Inter, Arial, sans-serif"><tspan x="140.0" dy="0">Tier model</tspan></text>
<circle cx="122.0" cy="933" r="6" fill="#22a9bd"/>
<text x="140.0" y="940" font-size="20" fill="#15202b" font-weight="400" text-anchor="start" font-family="Inter, Arial, sans-serif"><tspan x="140.0" dy="0">Marketing copy</tspan></text>
<circle cx="122.0" cy="968" r="6" fill="#22a9bd"/>
<text x="140.0" y="975" font-size="20" fill="#15202b" font-weight="400" text-anchor="start" font-family="Inter, Arial, sans-serif"><tspan x="140.0" dy="0">Trust/privacy</tspan></text>
<circle cx="122.0" cy="1003" r="6" fill="#22a9bd"/>
<text x="140.0" y="1010" font-size="20" fill="#15202b" font-weight="400" text-anchor="start" font-family="Inter, Arial, sans-serif"><tspan x="140.0" dy="0">Free/local path</tspan></text>
<rect x="369.66666666666663" y="738" width="251.66666666666666" height="315" rx="24" fill="#101828" opacity="0.06"/><rect x="363.66666666666663" y="730" width="251.66666666666666" height="315" rx="24" fill="white" stroke="#e6eef4" stroke-width="2"/>
<rect x="363.66666666666663" y="730" width="251.66666666666666" height="62" rx="24" fill="#2e90fa"/>
<text x="389.66666666666663" y="772" font-family="Inter, Arial" font-size="26" font-weight="800" fill="white">Phase 1</text>
<text x="389.66666666666663" y="833" font-size="25" fill="#15202b" font-weight="800" text-anchor="start" font-family="Inter, Arial, sans-serif"><tspan x="389.66666666666663" dy="0">Activation Loop</tspan></text>
<circle cx="395.66666666666663" cy="898" r="6" fill="#2e90fa"/>
<text x="413.66666666666663" y="905" font-size="20" fill="#15202b" font-weight="400" text-anchor="start" font-family="Inter, Arial, sans-serif"><tspan x="413.66666666666663" dy="0">First-run setup</tspan></text>
<circle cx="395.66666666666663" cy="933" r="6" fill="#2e90fa"/>
<text x="413.66666666666663" y="940" font-size="20" fill="#15202b" font-weight="400" text-anchor="start" font-family="Inter, Arial, sans-serif"><tspan x="413.66666666666663" dy="0">Candidate profile</tspan></text>
<circle cx="395.66666666666663" cy="968" r="6" fill="#2e90fa"/>
<text x="413.66666666666663" y="975" font-size="20" fill="#15202b" font-weight="400" text-anchor="start" font-family="Inter, Arial, sans-serif"><tspan x="413.66666666666663" dy="0">Scout sources</tspan></text>
<circle cx="395.66666666666663" cy="1003" r="6" fill="#2e90fa"/>
<text x="413.66666666666663" y="1010" font-size="20" fill="#15202b" font-weight="400" text-anchor="start" font-family="Inter, Arial, sans-serif"><tspan x="413.66666666666663" dy="0">Apply Next</tspan></text>
<rect x="643.3333333333333" y="738" width="251.66666666666666" height="315" rx="24" fill="#101828" opacity="0.06"/><rect x="637.3333333333333" y="730" width="251.66666666666666" height="315" rx="24" fill="white" stroke="#e6eef4" stroke-width="2"/>
<rect x="637.3333333333333" y="730" width="251.66666666666666" height="62" rx="24" fill="#7a5af8"/>
<text x="663.3333333333333" y="772" font-family="Inter, Arial" font-size="26" font-weight="800" fill="white">Phase 2</text>
<text x="663.3333333333333" y="833" font-size="25" fill="#15202b" font-weight="800" text-anchor="start" font-family="Inter, Arial, sans-serif"><tspan x="663.3333333333333" dy="0">Command Center</tspan></text>
<circle cx="669.3333333333333" cy="898" r="6" fill="#7a5af8"/>
<text x="687.3333333333333" y="905" font-size="20" fill="#15202b" font-weight="400" text-anchor="start" font-family="Inter, Arial, sans-serif"><tspan x="687.3333333333333" dy="0">Today view</tspan></text>
<circle cx="669.3333333333333" cy="933" r="6" fill="#7a5af8"/>
<text x="687.3333333333333" y="940" font-size="20" fill="#15202b" font-weight="400" text-anchor="start" font-family="Inter, Arial, sans-serif"><tspan x="687.3333333333333" dy="0">Follow-ups</tspan></text>
<circle cx="669.3333333333333" cy="968" r="6" fill="#7a5af8"/>
<text x="687.3333333333333" y="975" font-size="20" fill="#15202b" font-weight="400" text-anchor="start" font-family="Inter, Arial, sans-serif"><tspan x="687.3333333333333" dy="0">Aging apps</tspan></text>
<circle cx="669.3333333333333" cy="1003" r="6" fill="#7a5af8"/>
<text x="687.3333333333333" y="1010" font-size="20" fill="#15202b" font-weight="400" text-anchor="start" font-family="Inter, Arial, sans-serif"><tspan x="687.3333333333333" dy="0">Quick actions</tspan></text>
<rect x="916.9999999999999" y="738" width="251.66666666666666" height="315" rx="24" fill="#101828" opacity="0.06"/><rect x="910.9999999999999" y="730" width="251.66666666666666" height="315" rx="24" fill="white" stroke="#e6eef4" stroke-width="2"/>
<rect x="910.9999999999999" y="730" width="251.66666666666666" height="62" rx="24" fill="#12b76a"/>
<text x="936.9999999999999" y="772" font-family="Inter, Arial" font-size="26" font-weight="800" fill="white">Phase 3</text>
<text x="936.9999999999999" y="833" font-size="25" fill="#15202b" font-weight="800" text-anchor="start" font-family="Inter, Arial, sans-serif"><tspan x="936.9999999999999" dy="0">Signals &amp;</tspan><tspan x="936.9999999999999" dy="29">Analytics</tspan></text>
<circle cx="942.9999999999999" cy="898" r="6" fill="#12b76a"/>
<text x="960.9999999999999" y="905" font-size="20" fill="#15202b" font-weight="400" text-anchor="start" font-family="Inter, Arial, sans-serif"><tspan x="960.9999999999999" dy="0">Outcome signals</tspan></text>
<circle cx="942.9999999999999" cy="933" r="6" fill="#12b76a"/>
<text x="960.9999999999999" y="940" font-size="20" fill="#15202b" font-weight="400" text-anchor="start" font-family="Inter, Arial, sans-serif"><tspan x="960.9999999999999" dy="0">Role timeline</tspan></text>
<circle cx="942.9999999999999" cy="968" r="6" fill="#12b76a"/>
<text x="960.9999999999999" y="975" font-size="20" fill="#15202b" font-weight="400" text-anchor="start" font-family="Inter, Arial, sans-serif"><tspan x="960.9999999999999" dy="0">Conversion metrics</tspan></text>
<circle cx="942.9999999999999" cy="1003" r="6" fill="#12b76a"/>
<text x="960.9999999999999" y="1010" font-size="20" fill="#15202b" font-weight="400" text-anchor="start" font-family="Inter, Arial, sans-serif"><tspan x="960.9999999999999" dy="0">Signal export</tspan></text>
<rect x="1190.6666666666665" y="738" width="251.66666666666666" height="315" rx="24" fill="#101828" opacity="0.06"/><rect x="1184.6666666666665" y="730" width="251.66666666666666" height="315" rx="24" fill="white" stroke="#e6eef4" stroke-width="2"/>
<rect x="1184.6666666666665" y="730" width="251.66666666666666" height="62" rx="24" fill="#f79009"/>
<text x="1210.6666666666665" y="772" font-family="Inter, Arial" font-size="26" font-weight="800" fill="white">Phase 4</text>
<text x="1210.6666666666665" y="833" font-size="25" fill="#15202b" font-weight="800" text-anchor="start" font-family="Inter, Arial, sans-serif"><tspan x="1210.6666666666665" dy="0">Connected Surfaces</tspan></text>
<circle cx="1216.6666666666665" cy="898" r="6" fill="#f79009"/>
<text x="1234.6666666666665" y="905" font-size="20" fill="#15202b" font-weight="400" text-anchor="start" font-family="Inter, Arial, sans-serif"><tspan x="1234.6666666666665" dy="0">Cloud sync</tspan></text>
<circle cx="1216.6666666666665" cy="933" r="6" fill="#f79009"/>
<text x="1234.6666666666665" y="940" font-size="20" fill="#15202b" font-weight="400" text-anchor="start" font-family="Inter, Arial, sans-serif"><tspan x="1234.6666666666665" dy="0">Extension sync</tspan></text>
<circle cx="1216.6666666666665" cy="968" r="6" fill="#f79009"/>
<text x="1234.6666666666665" y="975" font-size="20" fill="#15202b" font-weight="400" text-anchor="start" font-family="Inter, Arial, sans-serif"><tspan x="1234.6666666666665" dy="0">App sync</tspan></text>
<circle cx="1216.6666666666665" cy="1003" r="6" fill="#f79009"/>
<text x="1234.6666666666665" y="1010" font-size="20" fill="#15202b" font-weight="400" text-anchor="start" font-family="Inter, Arial, sans-serif"><tspan x="1234.6666666666665" dy="0">Backup/restore</tspan></text>
<rect x="1464.333333333333" y="738" width="251.66666666666666" height="315" rx="24" fill="#101828" opacity="0.06"/><rect x="1458.333333333333" y="730" width="251.66666666666666" height="315" rx="24" fill="white" stroke="#e6eef4" stroke-width="2"/>
<rect x="1458.333333333333" y="730" width="251.66666666666666" height="62" rx="24" fill="#f04438"/>
<text x="1484.333333333333" y="772" font-family="Inter, Arial" font-size="26" font-weight="800" fill="white">Phase 5</text>
<text x="1484.333333333333" y="833" font-size="25" fill="#15202b" font-weight="800" text-anchor="start" font-family="Inter, Arial, sans-serif"><tspan x="1484.333333333333" dy="0">Launch Readiness</tspan></text>
<circle cx="1490.333333333333" cy="898" r="6" fill="#f04438"/>
<text x="1508.333333333333" y="905" font-size="20" fill="#15202b" font-weight="400" text-anchor="start" font-family="Inter, Arial, sans-serif"><tspan x="1508.333333333333" dy="0">QA</tspan></text>
<circle cx="1490.333333333333" cy="933" r="6" fill="#f04438"/>
<text x="1508.333333333333" y="940" font-size="20" fill="#15202b" font-weight="400" text-anchor="start" font-family="Inter, Arial, sans-serif"><tspan x="1508.333333333333" dy="0">Demo data</tspan></text>
<circle cx="1490.333333333333" cy="968" r="6" fill="#f04438"/>
<text x="1508.333333333333" y="975" font-size="20" fill="#15202b" font-weight="400" text-anchor="start" font-family="Inter, Arial, sans-serif"><tspan x="1508.333333333333" dy="0">Beta cohort</tspan></text>
<circle cx="1490.333333333333" cy="1003" r="6" fill="#f04438"/>
<text x="1508.333333333333" y="1010" font-size="20" fill="#15202b" font-weight="400" text-anchor="start" font-family="Inter, Arial, sans-serif"><tspan x="1508.333333333333" dy="0">Pricing/tier QA</tspan></text>
<line x1="1734.9999999999998" x2="1734.9999999999998" y1="700" y2="1085" stroke="url(#snap)" stroke-width="8" stroke-dasharray="18 12"/>
<rect x="1579.9999999999998" y="1085" width="310" height="58" rx="29" fill="url(#snap)"/>
<text x="1734.9999999999998" y="1123" font-family="Inter, Arial" font-size="24" fill="white" font-weight="800" text-anchor="middle">GO LIVE SNAP LINE</text>
<text x="90" y="1210" font-family="Inter, Arial" font-size="36" font-weight="800" fill="#15202b">Post-launch update waves</text>
<rect x="96" y="1253" width="500" height="225" rx="24" fill="#101828" opacity="0.06"/><rect x="90" y="1245" width="500" height="225" rx="24" fill="white" stroke="#e6eef4" stroke-width="2"/>
<rect x="114" y="1269" width="116" height="42" rx="21" fill="#0e9384"/>
<text x="172" y="1293" font-family="Inter, Arial" font-size="20" fill="white" font-weight="800" text-anchor="middle">Wave 1</text>
<text x="250" y="1295" font-family="Inter, Arial" font-size="27" fill="#15202b" font-weight="800">Launch Accelerators</text>
<circle cx="125" cy="1331" r="5" fill="#0e9384"/>
<text x="142" y="1338" font-family="Inter, Arial" font-size="19" fill="#15202b">Assets workspace</text>
<circle cx="125" cy="1360" r="5" fill="#0e9384"/>
<text x="142" y="1367" font-family="Inter, Arial" font-size="19" fill="#15202b">Role detail page</text>
<circle cx="125" cy="1389" r="5" fill="#0e9384"/>
<text x="142" y="1396" font-family="Inter, Arial" font-size="19" fill="#15202b">Company intelligence</text>
<circle cx="125" cy="1418" r="5" fill="#0e9384"/>
<text x="142" y="1425" font-family="Inter, Arial" font-size="19" fill="#15202b">Gmail ingest</text>
<circle cx="125" cy="1447" r="5" fill="#0e9384"/>
<text x="142" y="1454" font-family="Inter, Arial" font-size="19" fill="#15202b">Notifications</text>
<rect x="636" y="1253" width="500" height="225" rx="24" fill="#101828" opacity="0.06"/><rect x="630" y="1245" width="500" height="225" rx="24" fill="white" stroke="#e6eef4" stroke-width="2"/>
<rect x="654" y="1269" width="116" height="42" rx="21" fill="#6938ef"/>
<text x="712" y="1293" font-family="Inter, Arial" font-size="20" fill="white" font-weight="800" text-anchor="middle">Wave 2</text>
<text x="790" y="1295" font-family="Inter, Arial" font-size="27" fill="#15202b" font-weight="800">Differentiators</text>
<circle cx="665" cy="1331" r="5" fill="#6938ef"/>
<text x="682" y="1338" font-family="Inter, Arial" font-size="19" fill="#15202b">Referral/contact CRM</text>
<circle cx="665" cy="1360" r="5" fill="#6938ef"/>
<text x="682" y="1367" font-family="Inter, Arial" font-size="19" fill="#15202b">Advanced AI+ workflows</text>
<circle cx="665" cy="1389" r="5" fill="#6938ef"/>
<text x="682" y="1396" font-family="Inter, Arial" font-size="19" fill="#15202b">Source quality benchmarks</text>
<circle cx="665" cy="1418" r="5" fill="#6938ef"/>
<text x="682" y="1425" font-family="Inter, Arial" font-size="19" fill="#15202b">Importers/migration</text>
<rect x="1176" y="1253" width="500" height="225" rx="24" fill="#101828" opacity="0.06"/><rect x="1170" y="1245" width="500" height="225" rx="24" fill="white" stroke="#e6eef4" stroke-width="2"/>
<rect x="1194" y="1269" width="116" height="42" rx="21" fill="#475467"/>
<text x="1252" y="1293" font-family="Inter, Arial" font-size="20" fill="white" font-weight="800" text-anchor="middle">Later</text>
<text x="1330" y="1295" font-family="Inter, Arial" font-size="27" fill="#15202b" font-weight="800">Expansion Bets</text>
<circle cx="1205" cy="1331" r="5" fill="#475467"/>
<text x="1222" y="1338" font-family="Inter, Arial" font-size="19" fill="#15202b">Public benchmark database</text>
<circle cx="1205" cy="1360" r="5" fill="#475467"/>
<text x="1222" y="1367" font-family="Inter, Arial" font-size="19" fill="#15202b">Services marketplace</text>
<circle cx="1205" cy="1389" r="5" fill="#475467"/>
<text x="1222" y="1396" font-family="Inter, Arial" font-size="19" fill="#15202b">Deep job board</text>
<circle cx="1205" cy="1418" r="5" fill="#475467"/>
<text x="1222" y="1425" font-family="Inter, Arial" font-size="19" fill="#15202b">Career coach portal</text>
<text x="90" y="1555" font-family="Inter, Arial" font-size="36" font-weight="800" fill="#15202b">Customer value map</text>
<rect x="96" y="1593" width="1620" height="330" rx="24" fill="#101828" opacity="0.06"/><rect x="90" y="1585" width="1620" height="330" rx="24" fill="white" stroke="#e6eef4" stroke-width="2"/>
<rect x="125" y="1615" width="260" height="40" rx="20" fill="#22a9bd" opacity="0.12"/>
<text x="145" y="1642" font-family="Inter, Arial" font-size="23" fill="#15202b" font-weight="800">Find better jobs</text>
<text x="430" y="1642" font-family="Inter, Arial" font-size="23" fill="#667085">Scout/source setup, company career pages, prioritized queue</text>
<rect x="125" y="1673" width="260" height="40" rx="20" fill="#2e90fa" opacity="0.12"/>
<text x="145" y="1700" font-family="Inter, Arial" font-size="23" fill="#15202b" font-weight="800">Decide faster</text>
<text x="430" y="1700" font-family="Inter, Arial" font-size="23" fill="#667085">Fit reasoning, Apply Next, role summary, compensation/remote parsing</text>
<rect x="125" y="1731" width="260" height="40" rx="20" fill="#7a5af8" opacity="0.12"/>
<text x="145" y="1758" font-family="Inter, Arial" font-size="23" fill="#15202b" font-weight="800">Act consistently</text>
<text x="430" y="1758" font-family="Inter, Arial" font-size="23" fill="#667085">Today view, follow-ups, extension clipping, reminders</text>
<rect x="125" y="1789" width="260" height="40" rx="20" fill="#12b76a" opacity="0.12"/>
<text x="145" y="1816" font-family="Inter, Arial" font-size="23" fill="#15202b" font-weight="800">Track outcomes</text>
<text x="430" y="1816" font-family="Inter, Arial" font-size="23" fill="#667085">Signals, role timeline, recruiter/rejection/offers</text>
<rect x="125" y="1847" width="260" height="40" rx="20" fill="#f79009" opacity="0.12"/>
<text x="145" y="1874" font-family="Inter, Arial" font-size="23" fill="#15202b" font-weight="800">Learn what works</text>
<text x="430" y="1874" font-family="Inter, Arial" font-size="23" fill="#667085">Analytics, source/company conversion, resume/version insight</text>
<text x="90" y="1990" font-family="Inter, Arial" font-size="36" font-weight="800" fill="#15202b">P0 launch gates — highest customer value before market</text>
<rect x="96" y="2033" width="310" height="120" rx="18" fill="#101828" opacity="0.06"/><rect x="90" y="2025" width="310" height="120" rx="18" fill="white" stroke="#e6eef4" stroke-width="2"/>
<text x="112" y="2063" font-family="Inter, Arial" font-size="22" fill="#15202b" font-weight="800">Tier Packaging</text>
<text x="112" y="2097" font-size="18" fill="#667085" font-weight="400" text-anchor="start" font-family="Inter, Arial, sans-serif"><tspan x="112" dy="0">Make Free / Local Pro / Cloud /</tspan><tspan x="112" dy="22">AI+ obvious.</tspan></text>
<rect x="424" y="2033" width="310" height="120" rx="18" fill="#101828" opacity="0.06"/><rect x="418" y="2025" width="310" height="120" rx="18" fill="white" stroke="#e6eef4" stroke-width="2"/>
<text x="440" y="2063" font-family="Inter, Arial" font-size="22" fill="#15202b" font-weight="800">Onboarding</text>
<text x="440" y="2097" font-size="18" fill="#667085" font-weight="400" text-anchor="start" font-family="Inter, Arial, sans-serif"><tspan x="440" dy="0">Empty state → first scout →</tspan><tspan x="440" dy="22">Apply Next fast.</tspan></text>
<rect x="752" y="2033" width="310" height="120" rx="18" fill="#101828" opacity="0.06"/><rect x="746" y="2025" width="310" height="120" rx="18" fill="white" stroke="#e6eef4" stroke-width="2"/>
<text x="768" y="2063" font-family="Inter, Arial" font-size="22" fill="#15202b" font-weight="800">Today View</text>
<text x="768" y="2097" font-size="18" fill="#667085" font-weight="400" text-anchor="start" font-family="Inter, Arial, sans-serif"><tspan x="768" dy="0">Show what to do next, not just</tspan><tspan x="768" dy="22">what exists.</tspan></text>
<rect x="1080" y="2033" width="310" height="120" rx="18" fill="#101828" opacity="0.06"/><rect x="1074" y="2025" width="310" height="120" rx="18" fill="white" stroke="#e6eef4" stroke-width="2"/>
<text x="1096" y="2063" font-family="Inter, Arial" font-size="22" fill="#15202b" font-weight="800">Outcome Signals</text>
<text x="1096" y="2097" font-size="18" fill="#667085" font-weight="400" text-anchor="start" font-family="Inter, Arial, sans-serif"><tspan x="1096" dy="0">Track rejection, screen,</tspan><tspan x="1096" dy="22">interview, offer, ghosted.</tspan></text>
<rect x="1408" y="2033" width="310" height="120" rx="18" fill="#101828" opacity="0.06"/><rect x="1402" y="2025" width="310" height="120" rx="18" fill="white" stroke="#e6eef4" stroke-width="2"/>
<text x="1424" y="2063" font-family="Inter, Arial" font-size="22" fill="#15202b" font-weight="800">Analytics v1</text>
<text x="1424" y="2097" font-size="18" fill="#667085" font-weight="400" text-anchor="start" font-family="Inter, Arial, sans-serif"><tspan x="1424" dy="0">Reveal what is working by</tspan><tspan x="1424" dy="22">source, company, role.</tspan></text>
<rect x="96" y="2171" width="310" height="120" rx="18" fill="#101828" opacity="0.06"/><rect x="90" y="2163" width="310" height="120" rx="18" fill="white" stroke="#e6eef4" stroke-width="2"/>
<text x="112" y="2201" font-family="Inter, Arial" font-size="22" fill="#15202b" font-weight="800">Scout UX</text>
<text x="112" y="2235" font-size="18" fill="#667085" font-weight="400" text-anchor="start" font-family="Inter, Arial, sans-serif"><tspan x="112" dy="0">Reliable company/ATS setup and</tspan><tspan x="112" dy="22">source clarity.</tspan></text>
<rect x="424" y="2171" width="310" height="120" rx="18" fill="#101828" opacity="0.06"/><rect x="418" y="2163" width="310" height="120" rx="18" fill="white" stroke="#e6eef4" stroke-width="2"/>
<text x="440" y="2201" font-family="Inter, Arial" font-size="22" fill="#15202b" font-weight="800">Extension v1</text>
<text x="440" y="2235" font-size="18" fill="#667085" font-weight="400" text-anchor="start" font-family="Inter, Arial, sans-serif"><tspan x="440" dy="0">Clip, status sync, fit, safe</tspan><tspan x="440" dy="22">assist.</tspan></text>
<rect x="752" y="2171" width="310" height="120" rx="18" fill="#101828" opacity="0.06"/><rect x="746" y="2163" width="310" height="120" rx="18" fill="white" stroke="#e6eef4" stroke-width="2"/>
<text x="768" y="2201" font-family="Inter, Arial" font-size="22" fill="#15202b" font-weight="800">Cloud Sync</text>
<text x="768" y="2235" font-size="18" fill="#667085" font-weight="400" text-anchor="start" font-family="Inter, Arial, sans-serif"><tspan x="768" dy="0">Web, extension, app, board stay</tspan><tspan x="768" dy="22">aligned.</tspan></text>
<rect x="1080" y="2171" width="310" height="120" rx="18" fill="#101828" opacity="0.06"/><rect x="1074" y="2163" width="310" height="120" rx="18" fill="white" stroke="#e6eef4" stroke-width="2"/>
<text x="1096" y="2201" font-family="Inter, Arial" font-size="22" fill="#15202b" font-weight="800">Trust &amp; Privacy</text>
<text x="1096" y="2235" font-size="18" fill="#667085" font-weight="400" text-anchor="start" font-family="Inter, Arial, sans-serif"><tspan x="1096" dy="0">No auto-submit. Human review.</tspan><tspan x="1096" dy="22">Data ownership.</tspan></text>
<rect x="1408" y="2171" width="310" height="120" rx="18" fill="#101828" opacity="0.06"/><rect x="1402" y="2163" width="310" height="120" rx="18" fill="white" stroke="#e6eef4" stroke-width="2"/>
<text x="1424" y="2201" font-family="Inter, Arial" font-size="22" fill="#15202b" font-weight="800">Marketing Refresh</text>
<text x="1424" y="2235" font-size="18" fill="#667085" font-weight="400" text-anchor="start" font-family="Inter, Arial, sans-serif"><tspan x="1424" dy="0">Position as job-search command</tspan><tspan x="1424" dy="22">center.</tspan></text>
<text x="90" y="2290" font-family="Inter, Arial" font-size="22" fill="#667085">Use this as an executive visual: the MD remains the detailed agent/build file; this is the market-facing planning view.</text>
</svg>